<?xml version="1.0" encoding="utf-8"?>
<!-- Generator: Adobe Illustrator 22.0.1, SVG Export Plug-In . SVG Version: 6.00 Build 0)  -->
<svg version="1.1" xmlns="http://www.w3.org/2000/svg" x="0px" y="0px"
     viewBox="0 0 750 500" style="enable-background:new 0 0 750 500;" xml:space="preserve">
<style type="text/css">
	.st0{fill:#F2F2F2;}
	.st1{fill:none;stroke:#FF4F66;stroke-width:0.25;stroke-miterlimit:10;}
	.st2{fill:#E5E5E5;}
	.st3{fill:#FF4F66;}
	.st4{fill:#4A4F52;}
	.st5{opacity:0.6;}
	.st6{fill:none;stroke:#B9BCC3;stroke-width:0.5;stroke-miterlimit:10;}
	.st7{fill:url(#SVGID_1_);}
	.st8{fill:none;stroke:#FF4F66;stroke-miterlimit:10;}
</style>
<g id="BACKGROUND">
	<rect x="0" class="st0" width="750" height="500"/>
</g>
<g id="OBJECTS">
	<g>
		<g>
			<line class="st1" x1="0" y1="266" x2="266" y2="0"/>
			<line class="st1" x1="0" y1="251.6" x2="251.5" y2="0"/>
			<line class="st1" x1="0" y1="237.1" x2="237.1" y2="0"/>
			<line class="st1" x1="0" y1="222.7" x2="222.7" y2="0"/>
			<line class="st1" x1="0" y1="208.3" x2="208.3" y2="0"/>
		</g>
		<polygon class="st2" points="563.6,0 492.5,0 750,257.5 750,186.4 		"/>
		<polygon class="st2" points="0,349 151,500 0,500 		"/>
		<polygon class="st3" points="335.8,500 277.7,441.9 219.7,500 		"/>
		<polygon class="st4" points="355.1,0 388.8,33.8 422.6,0 		"/>
		
			<rect x="605.5" y="186.6" transform="matrix(0.7071 -0.7071 0.7071 0.7071 27.7841 525.3257)" class="st3" width="85.1" height="85.1"/>
		
			<rect x="541.1" y="184.1" transform="matrix(0.7071 -0.7071 0.7071 0.7071 20.1134 456.3134)" class="st4" width="39.6" height="39.6"/>
		<polygon class="st4" points="750,170.4 750,101.6 648.4,0 579.6,0 		"/>
		<polygon class="st3" points="750,18.7 750,0 710.7,0 605,105.7 499.4,0 441.4,0 605,163.6 		"/>
		<g class="st5">
			<line class="st6" x1="750" y1="198.8" x2="551.2" y2="0"/>
			<line class="st6" x1="750" y1="207.9" x2="542.1" y2="0"/>
			<line class="st6" x1="750" y1="217" x2="533" y2="0"/>
			<line class="st6" x1="750" y1="226" x2="524" y2="0"/>
			<line class="st6" x1="750" y1="235.1" x2="514.9" y2="0"/>
		</g>
		<polygon class="st4" points="619.7,428.7 750,298.4 750,219.2 540.5,428.7 611.8,500 691,500 		"/>
		<polygon class="st4" points="0,328.1 112.5,440.6 53.2,500 129.5,500 188.9,440.6 0,251.7 		"/>
		<linearGradient id="SVGID_1_" gradientUnits="userSpaceOnUse" x1="-4.8473" y1="134.5551" x2="94.1669" y2="35.5409">
			<stop  offset="0" style="stop-color:#FF4F66"/>
			<stop  offset="0.4242" style="stop-color:#C22B3F"/>
			<stop  offset="0.7625" style="stop-color:#E94258"/>
			<stop  offset="1" style="stop-color:#FF4F66"/>
		</linearGradient>
		<polygon class="st7" points="0,141.2 0,199.2 158.7,40.5 118.2,0 60.2,0 100.7,40.5 		"/>
		<polygon class="st3" points="696.2,500 750,446.2 750,373.8 623.8,500 		"/>
		<g>
			<circle class="st3" cx="40.3" cy="406.2" r="1.4"/>
			<circle class="st3" cx="40.3" cy="393.2" r="1.4"/>
			<circle class="st3" cx="40.3" cy="380.2" r="1.4"/>
			<circle class="st3" cx="40.3" cy="367.2" r="1.4"/>
			<circle class="st3" cx="40.3" cy="354.2" r="1.4"/>
			<circle class="st3" cx="40.3" cy="341.2" r="1.4"/>
			<circle class="st3" cx="40.3" cy="328.2" r="1.4"/>
			<circle class="st3" cx="53.3" cy="406.2" r="1.4"/>
			<circle class="st3" cx="53.3" cy="393.2" r="1.4"/>
			<circle class="st3" cx="53.3" cy="380.2" r="1.4"/>
			<circle class="st3" cx="53.3" cy="367.2" r="1.4"/>
			<circle class="st3" cx="53.3" cy="354.2" r="1.4"/>
			<circle class="st3" cx="53.3" cy="341.2" r="1.4"/>
			<circle class="st3" cx="53.3" cy="328.2" r="1.4"/>
			<circle class="st3" cx="66.3" cy="406.2" r="1.4"/>
			<circle class="st3" cx="66.3" cy="393.2" r="1.4"/>
			<circle class="st3" cx="66.3" cy="380.2" r="1.4"/>
			<circle class="st3" cx="66.3" cy="367.2" r="1.4"/>
			<circle class="st3" cx="66.3" cy="354.2" r="1.4"/>
			<circle class="st3" cx="66.3" cy="341.2" r="1.4"/>
			<circle class="st3" cx="66.3" cy="328.2" r="1.4"/>
			<circle class="st3" cx="79.3" cy="406.2" r="1.4"/>
			<circle class="st3" cx="79.3" cy="393.2" r="1.4"/>
			<circle class="st3" cx="79.3" cy="380.2" r="1.4"/>
			<circle class="st3" cx="79.3" cy="367.2" r="1.4"/>
			<circle class="st3" cx="79.3" cy="354.2" r="1.4"/>
			<circle class="st3" cx="79.3" cy="341.2" r="1.4"/>
			<circle class="st3" cx="79.3" cy="328.2" r="1.4"/>
			<circle class="st3" cx="92.3" cy="406.2" r="1.4"/>
			<circle class="st3" cx="92.3" cy="393.2" r="1.4"/>
			<circle class="st3" cx="92.3" cy="380.2" r="1.4"/>
			<circle class="st3" cx="92.3" cy="367.2" r="1.4"/>
			<circle class="st3" cx="92.3" cy="354.2" r="1.4"/>
			<circle class="st3" cx="92.3" cy="341.2" r="1.4"/>
			<circle class="st3" cx="92.3" cy="328.2" r="1.4"/>
		</g>
		<g>
			<circle class="st4" cx="609" cy="230.5" r="1.4"/>
			<circle class="st4" cx="622" cy="230.5" r="1.4"/>
			<circle class="st4" cx="635" cy="230.5" r="1.4"/>
			<circle class="st4" cx="648" cy="230.5" r="1.4"/>
			<circle class="st4" cx="609" cy="243.5" r="1.4"/>
			<circle class="st4" cx="622" cy="243.5" r="1.4"/>
			<circle class="st4" cx="635" cy="243.5" r="1.4"/>
			<circle class="st4" cx="648" cy="243.5" r="1.4"/>
			<circle class="st4" cx="609" cy="256.5" r="1.4"/>
			<circle class="st4" cx="622" cy="256.5" r="1.4"/>
			<circle class="st4" cx="635" cy="256.5" r="1.4"/>
			<circle class="st4" cx="648" cy="256.5" r="1.4"/>
			<circle class="st4" cx="609" cy="269.5" r="1.4"/>
			<circle class="st4" cx="622" cy="269.5" r="1.4"/>
			<circle class="st4" cx="635" cy="269.5" r="1.4"/>
			<circle class="st4" cx="648" cy="269.5" r="1.4"/>
		</g>
		<g>
			<path class="st4" d="M524.2,453.6c-0.5-0.5-0.5-1.4,0-1.9c0.5-0.5,1.4-0.5,1.9,0c0.5,0.5,0.5,1.4,0,1.9
				C525.6,454.1,524.7,454.1,524.2,453.6z"/>
			<path class="st4" d="M515,462.8c-0.5-0.5-0.5-1.4,0-1.9c0.5-0.5,1.4-0.5,1.9,0c0.5,0.5,0.5,1.4,0,1.9
				C516.4,463.3,515.5,463.3,515,462.8z"/>
			<path class="st4" d="M505.8,471.9c-0.5-0.5-0.5-1.4,0-1.9c0.5-0.5,1.4-0.5,1.9,0c0.5,0.5,0.5,1.4,0,1.9
				C507.2,472.5,506.3,472.5,505.8,471.9z"/>
			<path class="st4" d="M496.6,481.1c-0.5-0.5-0.5-1.4,0-1.9c0.5-0.5,1.4-0.5,1.9,0c0.5,0.5,0.5,1.4,0,1.9
				C498,481.7,497.1,481.7,496.6,481.1z"/>
			<circle class="st4" cx="515.9" cy="443.4" r="1.4"/>
			<path class="st4" d="M505.8,453.6c-0.5-0.5-0.5-1.4,0-1.9c0.5-0.5,1.4-0.5,1.9,0c0.5,0.5,0.5,1.4,0,1.9
				C507.2,454.1,506.3,454.1,505.8,453.6z"/>
			<path class="st4" d="M496.6,462.8c-0.5-0.5-0.5-1.4,0-1.9c0.5-0.5,1.4-0.5,1.9,0c0.5,0.5,0.5,1.4,0,1.9
				C498,463.3,497.1,463.3,496.6,462.8z"/>
			<path class="st4" d="M487.4,471.9c-0.5-0.5-0.5-1.4,0-1.9c0.5-0.5,1.4-0.5,1.9,0c0.5,0.5,0.5,1.4,0,1.9
				C488.8,472.5,487.9,472.5,487.4,471.9z"/>
			<path class="st4" d="M505.8,435.2c-0.5-0.5-0.5-1.4,0-1.9c0.5-0.5,1.4-0.5,1.9,0c0.5,0.5,0.5,1.4,0,1.9
				C507.2,435.7,506.3,435.7,505.8,435.2z"/>
			<circle class="st4" cx="497.6" cy="443.4" r="1.4"/>
			<path class="st4" d="M487.4,453.6c-0.5-0.5-0.5-1.4,0-1.9c0.5-0.5,1.4-0.5,1.9,0c0.5,0.5,0.5,1.4,0,1.9
				C488.8,454.1,487.9,454.1,487.4,453.6z"/>
			<path class="st4" d="M478.2,462.8c-0.5-0.5-0.5-1.4,0-1.9c0.5-0.5,1.4-0.5,1.9,0c0.5,0.5,0.5,1.4,0,1.9
				C479.6,463.3,478.7,463.3,478.2,462.8z"/>
			<path class="st4" d="M496.6,426c-0.5-0.5-0.5-1.4,0-1.9c0.5-0.5,1.4-0.5,1.9,0c0.5,0.5,0.5,1.4,0,1.9
				C498,426.5,497.1,426.5,496.6,426z"/>
			<path class="st4" d="M487.4,435.2c-0.5-0.5-0.5-1.4,0-1.9c0.5-0.5,1.4-0.5,1.9,0c0.5,0.5,0.5,1.4,0,1.9
				C488.8,435.7,487.9,435.7,487.4,435.2z"/>
			<path class="st4" d="M478.2,444.4c-0.5-0.5-0.5-1.4,0-1.9c0.5-0.5,1.4-0.5,1.9,0c0.5,0.5,0.5,1.4,0,1.9
				C479.6,444.9,478.7,444.9,478.2,444.4z"/>
			<path class="st4" d="M469,453.6c-0.5-0.5-0.5-1.4,0-1.9c0.5-0.5,1.4-0.5,1.9,0c0.5,0.5,0.5,1.4,0,1.9
				C470.4,454.1,469.5,454.1,469,453.6z"/>
		</g>
		<g>
			<line class="st8" x1="750" y1="310.9" x2="560.9" y2="500"/>
			<line class="st8" x1="750" y1="321.2" x2="571.2" y2="500"/>
			<line class="st8" x1="750" y1="331.4" x2="581.4" y2="500"/>
			<line class="st8" x1="750" y1="341.7" x2="591.7" y2="500"/>
			<line class="st8" x1="750" y1="351.9" x2="601.9" y2="500"/>
		</g>
		<g class="st5">
			<line class="st6" x1="0" y1="234.4" x2="265.6" y2="500"/>
			<line class="st6" x1="0" y1="222.3" x2="277.7" y2="500"/>
			<line class="st6" x1="0" y1="210.2" x2="289.8" y2="500"/>
			<line class="st6" x1="0" y1="198" x2="302" y2="500"/>
			<line class="st6" x1="0" y1="185.9" x2="314.1" y2="500"/>
		</g>
		
			<rect x="62.8" y="203.6" transform="matrix(0.7071 -0.7071 0.7071 0.7071 -135.018 126.8402)" class="st4" width="45.6" height="45.6"/>
		<polygon class="st3" points="0,410 90,500 0,500 		"/>
		<polygon class="st3" points="343.6,0 275.7,0 127.9,147.8 0,20 0,87.9 127.9,215.7 		"/>
		<polygon class="st4" points="60.2,0 43,0 0,43 0,101 80.6,20.4 		"/>
		<g>
			<circle class="st4" cx="88.9" cy="95.6" r="1.4"/>
			<circle class="st4" cx="101.9" cy="95.6" r="1.4"/>
			<circle class="st4" cx="114.9" cy="95.6" r="1.4"/>
			<circle class="st4" cx="127.9" cy="95.6" r="1.4"/>
			<circle class="st4" cx="140.9" cy="95.6" r="1.4"/>
			<circle class="st4" cx="153.9" cy="95.6" r="1.4"/>
			<circle class="st4" cx="166.9" cy="95.6" r="1.4"/>
			<circle class="st4" cx="88.9" cy="108.6" r="1.4"/>
			<circle class="st4" cx="101.9" cy="108.6" r="1.4"/>
			<circle class="st4" cx="114.9" cy="108.6" r="1.4"/>
			<circle class="st4" cx="127.9" cy="108.6" r="1.4"/>
			<circle class="st4" cx="140.9" cy="108.6" r="1.4"/>
			<circle class="st4" cx="153.9" cy="108.6" r="1.4"/>
			<circle class="st4" cx="166.9" cy="108.6" r="1.4"/>
			<circle class="st4" cx="88.9" cy="121.6" r="1.4"/>
			<circle class="st4" cx="101.9" cy="121.6" r="1.4"/>
			<circle class="st4" cx="114.9" cy="121.6" r="1.4"/>
			<circle class="st4" cx="127.9" cy="121.6" r="1.4"/>
			<circle class="st4" cx="140.9" cy="121.6" r="1.4"/>
			<circle class="st4" cx="153.9" cy="121.6" r="1.4"/>
			<circle class="st4" cx="166.9" cy="121.6" r="1.4"/>
			<circle class="st4" cx="88.9" cy="134.6" r="1.4"/>
			<circle class="st4" cx="101.9" cy="134.6" r="1.4"/>
			<circle class="st4" cx="114.9" cy="134.6" r="1.4"/>
			<circle class="st4" cx="127.9" cy="134.6" r="1.4"/>
			<circle class="st4" cx="140.9" cy="134.6" r="1.4"/>
			<circle class="st4" cx="153.9" cy="134.6" r="1.4"/>
			<circle class="st4" cx="166.9" cy="134.6" r="1.4"/>
			<circle class="st4" cx="88.9" cy="147.6" r="1.4"/>
			<circle class="st4" cx="101.9" cy="147.6" r="1.4"/>
			<circle class="st4" cx="114.9" cy="147.6" r="1.4"/>
			<circle class="st4" cx="127.9" cy="147.6" r="1.4"/>
			<circle class="st4" cx="140.9" cy="147.6" r="1.4"/>
			<circle class="st4" cx="153.9" cy="147.6" r="1.4"/>
			<circle class="st4" cx="166.9" cy="147.6" r="1.4"/>
		</g>
	</g>
</g>
</svg>
